<mxfile host="app.diagrams.net" modified="2020-11-21T05:51:35.454Z" agent="5.0 (Windows NT 10.0; Win64; x64) AppleWebKit/537.36 (KHTML, like Gecko) Chrome/86.0.4240.198 Safari/537.36" etag="Alutx-BLU3czjkoBsCO2" version="13.10.0" type="github">
  <diagram id="h0yh4uh9Ou2qqzZrw4VW" name="Page-1">
    <mxGraphModel dx="1038" dy="491" grid="1" gridSize="10" guides="1" tooltips="1" connect="1" arrows="1" fold="1" page="1" pageScale="1" pageWidth="850" pageHeight="1100" math="0" shadow="0">
      <root>
        <mxCell id="0" />
        <mxCell id="1" parent="0" />
        <mxCell id="OsMlclKe9sGLii8gvVtk-3" value="Yes" style="edgeStyle=orthogonalEdgeStyle;rounded=0;orthogonalLoop=1;jettySize=auto;html=1;entryX=0.5;entryY=0;entryDx=0;entryDy=0;" parent="1" edge="1">
          <mxGeometry relative="1" as="geometry">
            <mxPoint x="665" y="450" as="targetPoint" />
          </mxGeometry>
        </mxCell>
        <mxCell id="U1gIK-Ml1kVYt0ZC6_mx-13" style="edgeStyle=orthogonalEdgeStyle;rounded=0;orthogonalLoop=1;jettySize=auto;html=1;entryX=0.5;entryY=0;entryDx=0;entryDy=0;exitX=0.5;exitY=1;exitDx=0;exitDy=0;" parent="1" edge="1">
          <mxGeometry relative="1" as="geometry">
            <Array as="points" />
            <mxPoint x="220" y="420" as="sourcePoint" />
          </mxGeometry>
        </mxCell>
        <mxCell id="CvozXVyJyX2lD8ZnYhm1-27" value="" style="ellipse;html=1;shape=endState;fillColor=#000000;strokeColor=#ff0000;" parent="1" vertex="1">
          <mxGeometry x="406.24" y="500" width="30" height="30" as="geometry" />
        </mxCell>
        <mxCell id="VSlNwRkXBHqi9DPdbiYh-8" value="Yes" style="edgeStyle=orthogonalEdgeStyle;rounded=0;orthogonalLoop=1;jettySize=auto;html=1;exitX=0;exitY=0.5;exitDx=0;exitDy=0;" parent="1" source="CvozXVyJyX2lD8ZnYhm1-31" target="NJLehydsSoXbE_FqP2UY-3" edge="1">
          <mxGeometry relative="1" as="geometry" />
        </mxCell>
        <mxCell id="VSlNwRkXBHqi9DPdbiYh-9" value="No" style="edgeStyle=orthogonalEdgeStyle;rounded=0;orthogonalLoop=1;jettySize=auto;html=1;entryX=0.5;entryY=0;entryDx=0;entryDy=0;" parent="1" source="CvozXVyJyX2lD8ZnYhm1-31" target="CvozXVyJyX2lD8ZnYhm1-34" edge="1">
          <mxGeometry relative="1" as="geometry" />
        </mxCell>
        <mxCell id="CvozXVyJyX2lD8ZnYhm1-31" value="Successful?" style="rhombus;whiteSpace=wrap;html=1;" parent="1" vertex="1">
          <mxGeometry x="363.93" y="280" width="114.63" height="70" as="geometry" />
        </mxCell>
        <mxCell id="HsVSo0U-j4XlrCOuTjKA-2" style="edgeStyle=orthogonalEdgeStyle;rounded=0;orthogonalLoop=1;jettySize=auto;html=1;entryX=1;entryY=0.5;entryDx=0;entryDy=0;exitX=0.5;exitY=1;exitDx=0;exitDy=0;" parent="1" source="CvozXVyJyX2lD8ZnYhm1-34" target="CvozXVyJyX2lD8ZnYhm1-27" edge="1">
          <mxGeometry relative="1" as="geometry">
            <mxPoint x="521.24" y="532.5" as="targetPoint" />
          </mxGeometry>
        </mxCell>
        <mxCell id="CvozXVyJyX2lD8ZnYhm1-34" value="Error" style="rounded=1;whiteSpace=wrap;html=1;fillColor=#FFFFFF;" parent="1" vertex="1">
          <mxGeometry x="480" y="400" width="200" height="25" as="geometry" />
        </mxCell>
        <mxCell id="VSlNwRkXBHqi9DPdbiYh-3" style="edgeStyle=orthogonalEdgeStyle;rounded=0;orthogonalLoop=1;jettySize=auto;html=1;entryX=0.5;entryY=0;entryDx=0;entryDy=0;" parent="1" source="VSlNwRkXBHqi9DPdbiYh-4" target="CvozXVyJyX2lD8ZnYhm1-31" edge="1">
          <mxGeometry relative="1" as="geometry">
            <mxPoint x="421.25" y="280" as="targetPoint" />
          </mxGeometry>
        </mxCell>
        <mxCell id="VSlNwRkXBHqi9DPdbiYh-1" value="Swap equity items with exchange" style="rounded=1;whiteSpace=wrap;html=1;fillColor=#FFFFFF;" parent="1" vertex="1">
          <mxGeometry x="321.25" y="130" width="200" height="40" as="geometry" />
        </mxCell>
        <mxCell id="VSlNwRkXBHqi9DPdbiYh-4" value="Send collected fees to accounting" style="rounded=1;whiteSpace=wrap;html=1;fillColor=#FFFFFF;" parent="1" vertex="1">
          <mxGeometry x="321.25" y="210" width="200" height="30" as="geometry" />
        </mxCell>
        <mxCell id="VSlNwRkXBHqi9DPdbiYh-5" style="edgeStyle=orthogonalEdgeStyle;rounded=0;orthogonalLoop=1;jettySize=auto;html=1;entryX=0.5;entryY=0;entryDx=0;entryDy=0;" parent="1" source="VSlNwRkXBHqi9DPdbiYh-1" target="VSlNwRkXBHqi9DPdbiYh-4" edge="1">
          <mxGeometry relative="1" as="geometry">
            <mxPoint x="421.25" y="145" as="sourcePoint" />
            <mxPoint x="421.25" y="260" as="targetPoint" />
          </mxGeometry>
        </mxCell>
        <mxCell id="NJLehydsSoXbE_FqP2UY-2" style="edgeStyle=orthogonalEdgeStyle;rounded=0;orthogonalLoop=1;jettySize=auto;html=1;" parent="1" source="NJLehydsSoXbE_FqP2UY-1" target="VSlNwRkXBHqi9DPdbiYh-1" edge="1">
          <mxGeometry relative="1" as="geometry" />
        </mxCell>
        <mxCell id="NJLehydsSoXbE_FqP2UY-1" value="Order filled notification &lt;br&gt;received from exchange" style="html=1;shadow=0;dashed=0;align=center;verticalAlign=middle;shape=mxgraph.arrows2.arrow;dy=0;dx=10;notch=10;" parent="1" vertex="1">
          <mxGeometry x="318.12" y="30" width="206.25" height="50" as="geometry" />
        </mxCell>
        <mxCell id="HsVSo0U-j4XlrCOuTjKA-3" style="edgeStyle=orthogonalEdgeStyle;rounded=0;orthogonalLoop=1;jettySize=auto;html=1;entryX=0;entryY=0.5;entryDx=0;entryDy=0;exitX=0.5;exitY=1;exitDx=0;exitDy=0;" parent="1" source="NJLehydsSoXbE_FqP2UY-3" target="CvozXVyJyX2lD8ZnYhm1-27" edge="1">
          <mxGeometry relative="1" as="geometry" />
        </mxCell>
        <mxCell id="NJLehydsSoXbE_FqP2UY-3" value="Release received equity to account" style="rounded=1;whiteSpace=wrap;html=1;fillColor=#FFFFFF;" parent="1" vertex="1">
          <mxGeometry x="190" y="400" width="200" height="25" as="geometry" />
        </mxCell>
      </root>
    </mxGraphModel>
  </diagram>
</mxfile>
